<mxfile host="app.diagrams.net" agent="Mozilla/5.0 (Windows NT 10.0; Win64; x64) AppleWebKit/537.36 (KHTML, like Gecko) Chrome/136.0.0.0 Safari/537.36" version="27.0.4">
  <diagram name="第 1 页" id="KrrP0iw_zQWmprqno4K5">
    <mxGraphModel dx="1311" dy="766" grid="1" gridSize="10" guides="1" tooltips="1" connect="1" arrows="1" fold="1" page="1" pageScale="1" pageWidth="827" pageHeight="1169" math="0" shadow="0">
      <root>
        <mxCell id="0" />
        <mxCell id="1" parent="0" />
        <mxCell id="Apf1asFmt5IO246Z4ZMp-68" style="edgeStyle=orthogonalEdgeStyle;rounded=0;orthogonalLoop=1;jettySize=auto;html=1;exitX=0.5;exitY=1;exitDx=0;exitDy=0;entryX=0.5;entryY=0;entryDx=0;entryDy=0;" parent="1" source="Apf1asFmt5IO246Z4ZMp-54" target="Apf1asFmt5IO246Z4ZMp-49" edge="1">
          <mxGeometry relative="1" as="geometry" />
        </mxCell>
        <mxCell id="Apf1asFmt5IO246Z4ZMp-73" style="edgeStyle=orthogonalEdgeStyle;rounded=0;orthogonalLoop=1;jettySize=auto;html=1;exitX=1;exitY=0.5;exitDx=0;exitDy=0;entryX=0.5;entryY=0;entryDx=0;entryDy=0;" parent="1" source="Apf1asFmt5IO246Z4ZMp-54" target="Apf1asFmt5IO246Z4ZMp-70" edge="1">
          <mxGeometry relative="1" as="geometry" />
        </mxCell>
        <mxCell id="Apf1asFmt5IO246Z4ZMp-54" value="" style="rounded=0;whiteSpace=wrap;html=1;rotation=90;opacity=30;strokeWidth=1;" parent="1" vertex="1">
          <mxGeometry x="379.88" y="476.82" width="100.24" height="188.5" as="geometry" />
        </mxCell>
        <mxCell id="Apf1asFmt5IO246Z4ZMp-45" value="" style="rounded=0;whiteSpace=wrap;html=1;rotation=90;opacity=30;strokeWidth=1;" parent="1" vertex="1">
          <mxGeometry x="185" y="225" width="260" height="180" as="geometry" />
        </mxCell>
        <mxCell id="Apf1asFmt5IO246Z4ZMp-2" value="" style="sketch=0;pointerEvents=1;shadow=0;dashed=0;html=1;strokeColor=none;fillColor=#505050;labelPosition=center;verticalLabelPosition=bottom;verticalAlign=top;outlineConnect=0;align=center;shape=mxgraph.office.devices.workstation_pc;" parent="1" vertex="1">
          <mxGeometry x="90" y="526" width="53" height="59" as="geometry" />
        </mxCell>
        <mxCell id="Apf1asFmt5IO246Z4ZMp-3" value="" style="image;html=1;image=img/lib/clip_art/computers/Database_128x128.png" parent="1" vertex="1">
          <mxGeometry x="444.24" y="540.5" width="53.5" height="70" as="geometry" />
        </mxCell>
        <mxCell id="Apf1asFmt5IO246Z4ZMp-9" value="gRPC" style="text;html=1;align=center;verticalAlign=middle;whiteSpace=wrap;rounded=0;" parent="1" vertex="1">
          <mxGeometry x="400" y="210" width="60" height="30" as="geometry" />
        </mxCell>
        <mxCell id="Apf1asFmt5IO246Z4ZMp-21" value="" style="edgeStyle=orthogonalEdgeStyle;rounded=0;orthogonalLoop=1;jettySize=auto;html=1;" parent="1" source="Apf1asFmt5IO246Z4ZMp-16" target="Apf1asFmt5IO246Z4ZMp-20" edge="1">
          <mxGeometry relative="1" as="geometry" />
        </mxCell>
        <mxCell id="Apf1asFmt5IO246Z4ZMp-16" value="Predict API" style="rounded=1;whiteSpace=wrap;html=1;absoluteArcSize=1;arcSize=14;strokeWidth=2;" parent="1" vertex="1">
          <mxGeometry x="510" y="210" width="110" height="50" as="geometry" />
        </mxCell>
        <mxCell id="Apf1asFmt5IO246Z4ZMp-19" style="edgeStyle=orthogonalEdgeStyle;rounded=0;orthogonalLoop=1;jettySize=auto;html=1;exitX=1;exitY=0.5;exitDx=0;exitDy=0;entryX=0;entryY=0.5;entryDx=0;entryDy=0;" parent="1" source="Apf1asFmt5IO246Z4ZMp-18" target="Apf1asFmt5IO246Z4ZMp-16" edge="1">
          <mxGeometry relative="1" as="geometry" />
        </mxCell>
        <mxCell id="Apf1asFmt5IO246Z4ZMp-28" style="edgeStyle=orthogonalEdgeStyle;rounded=0;orthogonalLoop=1;jettySize=auto;html=1;exitX=0.5;exitY=1;exitDx=0;exitDy=0;entryX=0.5;entryY=0;entryDx=0;entryDy=0;" parent="1" source="Apf1asFmt5IO246Z4ZMp-18" target="Apf1asFmt5IO246Z4ZMp-27" edge="1">
          <mxGeometry relative="1" as="geometry" />
        </mxCell>
        <mxCell id="Apf1asFmt5IO246Z4ZMp-18" value="Received Frame" style="rounded=1;whiteSpace=wrap;html=1;absoluteArcSize=1;arcSize=14;strokeWidth=2;" parent="1" vertex="1">
          <mxGeometry x="260" y="210" width="110" height="50" as="geometry" />
        </mxCell>
        <mxCell id="Apf1asFmt5IO246Z4ZMp-29" style="edgeStyle=orthogonalEdgeStyle;rounded=0;orthogonalLoop=1;jettySize=auto;html=1;exitX=0;exitY=0.5;exitDx=0;exitDy=0;entryX=1;entryY=0.5;entryDx=0;entryDy=0;" parent="1" source="Apf1asFmt5IO246Z4ZMp-20" target="Apf1asFmt5IO246Z4ZMp-27" edge="1">
          <mxGeometry relative="1" as="geometry" />
        </mxCell>
        <mxCell id="Apf1asFmt5IO246Z4ZMp-20" value="Prediction Result" style="rounded=1;whiteSpace=wrap;html=1;absoluteArcSize=1;arcSize=14;strokeWidth=2;" parent="1" vertex="1">
          <mxGeometry x="510" y="360" width="110" height="50" as="geometry" />
        </mxCell>
        <mxCell id="Apf1asFmt5IO246Z4ZMp-51" style="edgeStyle=orthogonalEdgeStyle;rounded=0;orthogonalLoop=1;jettySize=auto;html=1;exitX=0.5;exitY=1;exitDx=0;exitDy=0;entryX=0.5;entryY=0;entryDx=0;entryDy=0;" parent="1" source="Apf1asFmt5IO246Z4ZMp-22" target="Apf1asFmt5IO246Z4ZMp-18" edge="1">
          <mxGeometry relative="1" as="geometry" />
        </mxCell>
        <mxCell id="Apf1asFmt5IO246Z4ZMp-22" value="Camera" style="rounded=1;whiteSpace=wrap;html=1;absoluteArcSize=1;arcSize=14;strokeWidth=2;" parent="1" vertex="1">
          <mxGeometry x="260" y="70" width="110" height="50" as="geometry" />
        </mxCell>
        <mxCell id="Apf1asFmt5IO246Z4ZMp-27" value="Compressed Frame and Result" style="rounded=1;whiteSpace=wrap;html=1;absoluteArcSize=1;arcSize=14;strokeWidth=2;" parent="1" vertex="1">
          <mxGeometry x="260" y="360" width="110" height="50" as="geometry" />
        </mxCell>
        <mxCell id="Apf1asFmt5IO246Z4ZMp-30" value="Return" style="text;html=1;align=center;verticalAlign=middle;whiteSpace=wrap;rounded=0;" parent="1" vertex="1">
          <mxGeometry x="400" y="360" width="60" height="30" as="geometry" />
        </mxCell>
        <mxCell id="Apf1asFmt5IO246Z4ZMp-31" value="Send Frame" style="text;html=1;align=center;verticalAlign=middle;whiteSpace=wrap;rounded=0;" parent="1" vertex="1">
          <mxGeometry x="390" y="240" width="80" height="30" as="geometry" />
        </mxCell>
        <mxCell id="Apf1asFmt5IO246Z4ZMp-33" value="WebRTC" style="text;html=1;align=center;verticalAlign=middle;whiteSpace=wrap;rounded=0;" parent="1" vertex="1">
          <mxGeometry x="130" y="350" width="60" height="30" as="geometry" />
        </mxCell>
        <mxCell id="Apf1asFmt5IO246Z4ZMp-40" value="Compress" style="text;html=1;align=center;verticalAlign=middle;whiteSpace=wrap;rounded=0;" parent="1" vertex="1">
          <mxGeometry x="255" y="290" width="60" height="30" as="geometry" />
        </mxCell>
        <mxCell id="Apf1asFmt5IO246Z4ZMp-46" value="SoC" style="text;html=1;align=center;verticalAlign=middle;whiteSpace=wrap;rounded=0;" parent="1" vertex="1">
          <mxGeometry x="210" y="180" width="60" height="30" as="geometry" />
        </mxCell>
        <mxCell id="Apf1asFmt5IO246Z4ZMp-47" value="" style="rounded=0;whiteSpace=wrap;html=1;rotation=90;opacity=30;strokeWidth=1;" parent="1" vertex="1">
          <mxGeometry x="432.5" y="227.5" width="265" height="180" as="geometry" />
        </mxCell>
        <mxCell id="Apf1asFmt5IO246Z4ZMp-48" value="AI SoC" style="text;html=1;align=center;verticalAlign=middle;whiteSpace=wrap;rounded=0;" parent="1" vertex="1">
          <mxGeometry x="470" y="180" width="60" height="30" as="geometry" />
        </mxCell>
        <mxCell id="Apf1asFmt5IO246Z4ZMp-56" style="edgeStyle=orthogonalEdgeStyle;rounded=0;orthogonalLoop=1;jettySize=auto;html=1;" parent="1" source="Apf1asFmt5IO246Z4ZMp-49" target="Apf1asFmt5IO246Z4ZMp-54" edge="1">
          <mxGeometry relative="1" as="geometry">
            <Array as="points">
              <mxPoint x="258" y="570" />
            </Array>
          </mxGeometry>
        </mxCell>
        <mxCell id="Apf1asFmt5IO246Z4ZMp-74" style="edgeStyle=orthogonalEdgeStyle;rounded=0;orthogonalLoop=1;jettySize=auto;html=1;exitX=1;exitY=0.5;exitDx=0;exitDy=0;entryX=0.5;entryY=1;entryDx=0;entryDy=0;" parent="1" source="Apf1asFmt5IO246Z4ZMp-49" target="Apf1asFmt5IO246Z4ZMp-70" edge="1">
          <mxGeometry relative="1" as="geometry" />
        </mxCell>
        <mxCell id="Apf1asFmt5IO246Z4ZMp-49" value="" style="rounded=0;whiteSpace=wrap;html=1;rotation=90;opacity=30;strokeWidth=1;" parent="1" vertex="1">
          <mxGeometry x="70.63" y="475.88" width="100.24" height="188.5" as="geometry" />
        </mxCell>
        <mxCell id="Apf1asFmt5IO246Z4ZMp-50" value="Remote&lt;div&gt;Server&lt;/div&gt;" style="text;html=1;align=center;verticalAlign=middle;whiteSpace=wrap;rounded=0;" parent="1" vertex="1">
          <mxGeometry x="29.999999999999993" y="526" width="60" height="30" as="geometry" />
        </mxCell>
        <mxCell id="Apf1asFmt5IO246Z4ZMp-55" value="Database&lt;div&gt;Server&lt;/div&gt;" style="text;html=1;align=center;verticalAlign=middle;whiteSpace=wrap;rounded=0;" parent="1" vertex="1">
          <mxGeometry x="350" y="526" width="60" height="30" as="geometry" />
        </mxCell>
        <mxCell id="Apf1asFmt5IO246Z4ZMp-57" value="Store/Request" style="text;html=1;align=center;verticalAlign=middle;whiteSpace=wrap;rounded=0;" parent="1" vertex="1">
          <mxGeometry x="220" y="540.5" width="100" height="30" as="geometry" />
        </mxCell>
        <mxCell id="Apf1asFmt5IO246Z4ZMp-70" value="" style="rounded=0;whiteSpace=wrap;html=1;rotation=90;opacity=30;strokeWidth=1;" parent="1" vertex="1">
          <mxGeometry x="229.88" y="660" width="100.24" height="188.5" as="geometry" />
        </mxCell>
        <mxCell id="Apf1asFmt5IO246Z4ZMp-71" value="Web&lt;div&gt;Server&lt;/div&gt;" style="text;html=1;align=center;verticalAlign=middle;whiteSpace=wrap;rounded=0;" parent="1" vertex="1">
          <mxGeometry x="185" y="710" width="60" height="30" as="geometry" />
        </mxCell>
        <mxCell id="Apf1asFmt5IO246Z4ZMp-75" value="Request" style="text;html=1;align=center;verticalAlign=middle;whiteSpace=wrap;rounded=0;" parent="1" vertex="1">
          <mxGeometry x="60" y="660" width="60" height="30" as="geometry" />
        </mxCell>
        <mxCell id="Apf1asFmt5IO246Z4ZMp-79" style="edgeStyle=orthogonalEdgeStyle;rounded=0;orthogonalLoop=1;jettySize=auto;html=1;exitX=0.25;exitY=1;exitDx=0;exitDy=0;entryX=1.017;entryY=0.393;entryDx=0;entryDy=0;entryPerimeter=0;" parent="1" source="Apf1asFmt5IO246Z4ZMp-70" target="Apf1asFmt5IO246Z4ZMp-49" edge="1">
          <mxGeometry relative="1" as="geometry" />
        </mxCell>
        <mxCell id="Apf1asFmt5IO246Z4ZMp-80" value="Response" style="text;html=1;align=center;verticalAlign=middle;whiteSpace=wrap;rounded=0;" parent="1" vertex="1">
          <mxGeometry x="150" y="660" width="60" height="30" as="geometry" />
        </mxCell>
        <mxCell id="Apf1asFmt5IO246Z4ZMp-81" value="Get data" style="text;html=1;align=center;verticalAlign=middle;whiteSpace=wrap;rounded=0;" parent="1" vertex="1">
          <mxGeometry x="437.74" y="680" width="60" height="30" as="geometry" />
        </mxCell>
        <mxCell id="Apf1asFmt5IO246Z4ZMp-82" style="edgeStyle=orthogonalEdgeStyle;rounded=0;orthogonalLoop=1;jettySize=auto;html=1;exitX=0;exitY=0.75;exitDx=0;exitDy=0;entryX=0.165;entryY=1;entryDx=0;entryDy=0;entryPerimeter=0;" parent="1" source="Apf1asFmt5IO246Z4ZMp-49" target="Apf1asFmt5IO246Z4ZMp-45" edge="1">
          <mxGeometry relative="1" as="geometry" />
        </mxCell>
        <mxCell id="Apf1asFmt5IO246Z4ZMp-83" value="Send actions" style="text;html=1;align=center;verticalAlign=middle;whiteSpace=wrap;rounded=0;" parent="1" vertex="1">
          <mxGeometry x="60" y="195" width="80" height="30" as="geometry" />
        </mxCell>
        <mxCell id="Apf1asFmt5IO246Z4ZMp-84" value="" style="sketch=0;aspect=fixed;pointerEvents=1;shadow=0;dashed=0;html=1;strokeColor=none;labelPosition=center;verticalLabelPosition=bottom;verticalAlign=top;align=center;shape=mxgraph.mscae.enterprise.website_generic;fillColor=#7D7D7D;" parent="1" vertex="1">
          <mxGeometry x="260" y="740" width="50" height="44" as="geometry" />
        </mxCell>
        <mxCell id="Apf1asFmt5IO246Z4ZMp-85" style="edgeStyle=orthogonalEdgeStyle;rounded=0;orthogonalLoop=1;jettySize=auto;html=1;exitX=0.75;exitY=1;exitDx=0;exitDy=0;entryX=0.01;entryY=0.531;entryDx=0;entryDy=0;entryPerimeter=0;" parent="1" source="Apf1asFmt5IO246Z4ZMp-45" target="Apf1asFmt5IO246Z4ZMp-49" edge="1">
          <mxGeometry relative="1" as="geometry" />
        </mxCell>
      </root>
    </mxGraphModel>
  </diagram>
</mxfile>
